<?xml version="1.0" encoding="UTF-8" standalone="no"?>
<!DOCTYPE svg PUBLIC "-//W3C//DTD SVG 1.1//EN"
 "http://www.w3.org/Graphics/SVG/1.1/DTD/svg11.dtd">
<!-- Generated by graphviz version 2.43.0 (0)
 -->
<!-- Title: async_fifo Pages: 1 -->
<svg width="1718pt" height="522pt"
 viewBox="0.00 0.00 1718.04 521.80" xmlns="http://www.w3.org/2000/svg" xmlns:xlink="http://www.w3.org/1999/xlink">
<g id="graph0" class="graph" transform="scale(1 1) rotate(0) translate(4 517.8)">
<title>async_fifo</title>
<polygon fill="white" stroke="transparent" points="-4,4 -4,-517.8 1714.04,-517.8 1714.04,4 -4,4"/>
<text text-anchor="middle" x="855.02" y="-7.8" font-family="Times,serif" font-size="14.00">async_fifo</text>
<!-- n1 -->
<g id="node1" class="node">
<title>n1</title>
<polygon fill="none" stroke="black" points="1249.85,-254.35 1249.85,-269.26 1221.92,-279.8 1182.42,-279.8 1154.5,-269.26 1154.5,-254.35 1182.42,-243.8 1221.92,-243.8 1249.85,-254.35"/>
<text text-anchor="middle" x="1202.17" y="-258.1" font-family="Times,serif" font-size="14.00">data_in</text>
</g>
<!-- c18 -->
<g id="node17" class="node">
<title>c18</title>
<polygon fill="none" stroke="black" points="1289.64,-58.8 1289.64,-196.8 1544.64,-196.8 1544.64,-58.8 1289.64,-58.8"/>
<text text-anchor="middle" x="1326.14" y="-181.6" font-family="Times,serif" font-size="14.00">data_in</text>
<polyline fill="none" stroke="black" points="1289.64,-173.8 1362.64,-173.8 "/>
<text text-anchor="middle" x="1326.14" y="-158.6" font-family="Times,serif" font-size="14.00">full</text>
<polyline fill="none" stroke="black" points="1289.64,-150.8 1362.64,-150.8 "/>
<text text-anchor="middle" x="1326.14" y="-135.6" font-family="Times,serif" font-size="14.00">raddr</text>
<polyline fill="none" stroke="black" points="1289.64,-127.8 1362.64,-127.8 "/>
<text text-anchor="middle" x="1326.14" y="-112.6" font-family="Times,serif" font-size="14.00">waddr</text>
<polyline fill="none" stroke="black" points="1289.64,-104.8 1362.64,-104.8 "/>
<text text-anchor="middle" x="1326.14" y="-89.6" font-family="Times,serif" font-size="14.00">wclk</text>
<polyline fill="none" stroke="black" points="1289.64,-81.8 1362.64,-81.8 "/>
<text text-anchor="middle" x="1326.14" y="-66.6" font-family="Times,serif" font-size="14.00">wclk_en</text>
<polyline fill="none" stroke="black" points="1362.64,-58.8 1362.64,-196.8 "/>
<text text-anchor="middle" x="1414.64" y="-131.6" font-family="Times,serif" font-size="14.00">fifomemory</text>
<text text-anchor="middle" x="1414.64" y="-116.6" font-family="Times,serif" font-size="14.00">fifo_memory</text>
<polyline fill="none" stroke="black" points="1466.64,-58.8 1466.64,-196.8 "/>
<text text-anchor="middle" x="1505.64" y="-124.1" font-family="Times,serif" font-size="14.00">data_out</text>
</g>
<!-- n1&#45;&gt;c18 -->
<g id="edge1" class="edge">
<title>n1:e&#45;&gt;c18:w</title>
<path fill="none" stroke="black" stroke-width="3" d="M1251.17,-261.8C1284.89,-261.8 1259.03,-201.52 1279.72,-188.33"/>
<polygon fill="black" stroke="black" stroke-width="3" points="1280.82,-191.66 1289.64,-185.8 1279.09,-184.88 1280.82,-191.66"/>
</g>
<!-- n2 -->
<g id="node2" class="node">
<title>n2</title>
<polygon fill="none" stroke="black" points="1691.46,-120.35 1691.46,-135.26 1659.39,-145.8 1614.04,-145.8 1581.97,-135.26 1581.97,-120.35 1614.04,-109.8 1659.39,-109.8 1691.46,-120.35"/>
<text text-anchor="middle" x="1636.71" y="-124.1" font-family="Times,serif" font-size="14.00">data_out</text>
</g>
<!-- n3 -->
<g id="node3" class="node">
<title>n3</title>
<polygon fill="none" stroke="black" points="1245.9,-362.35 1245.9,-377.26 1220.29,-387.8 1184.06,-387.8 1158.44,-377.26 1158.44,-362.35 1184.06,-351.8 1220.29,-351.8 1245.9,-362.35"/>
<text text-anchor="middle" x="1202.17" y="-366.1" font-family="Times,serif" font-size="14.00">empty</text>
</g>
<!-- n4 -->
<g id="node4" class="node">
<title>n4</title>
<polygon fill="none" stroke="black" points="636.65,-154.35 636.65,-169.26 620.08,-179.8 596.66,-179.8 580.09,-169.26 580.09,-154.35 596.66,-143.8 620.08,-143.8 636.65,-154.35"/>
<text text-anchor="middle" x="608.37" y="-158.1" font-family="Times,serif" font-size="14.00">full</text>
</g>
<!-- n4&#45;&gt;c18 -->
<g id="edge20" class="edge">
<title>n4:e&#45;&gt;c18:w</title>
<path fill="none" stroke="black" d="M637.37,-161.8C923.87,-161.8 998.02,-162.78 1279.54,-162.8"/>
<polygon fill="black" stroke="black" points="1279.64,-166.3 1289.64,-162.8 1279.64,-159.3 1279.64,-166.3"/>
</g>
<!-- n5 -->
<g id="node5" class="node">
<title>n5</title>
<polygon fill="none" stroke="black" points="1636.71,-464.8 1580.58,-446.8 1636.71,-428.8 1692.85,-446.8 1636.71,-464.8"/>
<text text-anchor="middle" x="1636.71" y="-443.1" font-family="Times,serif" font-size="14.00">g_rptr</text>
</g>
<!-- c26 -->
<g id="node21" class="node">
<title>c26</title>
<polygon fill="none" stroke="black" points="127.45,-176.8 127.45,-268.8 366.45,-268.8 366.45,-176.8 127.45,-176.8"/>
<text text-anchor="middle" x="159.95" y="-253.6" font-family="Times,serif" font-size="14.00">g_rptr</text>
<polyline fill="none" stroke="black" points="127.45,-245.8 192.45,-245.8 "/>
<text text-anchor="middle" x="159.95" y="-230.6" font-family="Times,serif" font-size="14.00">w_en</text>
<polyline fill="none" stroke="black" points="127.45,-222.8 192.45,-222.8 "/>
<text text-anchor="middle" x="159.95" y="-207.6" font-family="Times,serif" font-size="14.00">wclk</text>
<polyline fill="none" stroke="black" points="127.45,-199.8 192.45,-199.8 "/>
<text text-anchor="middle" x="159.95" y="-184.6" font-family="Times,serif" font-size="14.00">wrst_n</text>
<polyline fill="none" stroke="black" points="192.45,-176.8 192.45,-268.8 "/>
<text text-anchor="middle" x="248.45" y="-226.6" font-family="Times,serif" font-size="14.00">wrpthandler</text>
<text text-anchor="middle" x="248.45" y="-211.6" font-family="Times,serif" font-size="14.00">wptr_handler</text>
<polyline fill="none" stroke="black" points="304.45,-176.8 304.45,-268.8 "/>
<text text-anchor="middle" x="335.45" y="-250.1" font-family="Times,serif" font-size="14.00">full</text>
<polyline fill="none" stroke="black" points="304.45,-238.8 366.45,-238.8 "/>
<text text-anchor="middle" x="335.45" y="-219.6" font-family="Times,serif" font-size="14.00">waddr</text>
<polyline fill="none" stroke="black" points="304.45,-207.8 366.45,-207.8 "/>
<text text-anchor="middle" x="335.45" y="-188.6" font-family="Times,serif" font-size="14.00">wptr</text>
</g>
<!-- n5&#45;&gt;c26 -->
<g id="edge22" class="edge">
<title>n5:e&#45;&gt;c26:w</title>
<path fill="none" stroke="black" stroke-width="3" d="M1693.71,-446.8C1716.52,-446.8 1738.89,-522.09 1580.64,-464.8 1561.06,-457.71 1564.02,-442.43 1544.64,-434.8 1403.22,-379.1 1355.17,-415.8 1203.17,-415.8 607.37,-415.8 607.37,-415.8 607.37,-415.8 512.6,-415.8 493.16,-384.26 402.45,-356.8 279.49,-319.58 207.24,-369.6 126.95,-269.3 126.65,-268.93 126.36,-268.52 126.07,-268.09"/>
<polygon fill="black" stroke="black" stroke-width="3" points="129.56,-267.76 125.95,-257.8 122.56,-267.84 129.56,-267.76"/>
</g>
<!-- n6 -->
<g id="node6" class="node">
<title>n6</title>
<polygon fill="none" stroke="black" points="783.03,-387.8 722.2,-369.8 783.03,-351.8 843.86,-369.8 783.03,-387.8"/>
<text text-anchor="middle" x="783.03" y="-366.1" font-family="Times,serif" font-size="14.00">g_wptr</text>
</g>
<!-- c19 -->
<g id="node18" class="node">
<title>c19</title>
<polygon fill="none" stroke="black" points="879.7,-257.8 879.7,-349.8 1114.7,-349.8 1114.7,-257.8 879.7,-257.8"/>
<text text-anchor="middle" x="912.7" y="-334.6" font-family="Times,serif" font-size="14.00">g_wptr</text>
<polyline fill="none" stroke="black" points="879.7,-326.8 945.7,-326.8 "/>
<text text-anchor="middle" x="912.7" y="-311.6" font-family="Times,serif" font-size="14.00">r_en</text>
<polyline fill="none" stroke="black" points="879.7,-303.8 945.7,-303.8 "/>
<text text-anchor="middle" x="912.7" y="-288.6" font-family="Times,serif" font-size="14.00">rclk</text>
<polyline fill="none" stroke="black" points="879.7,-280.8 945.7,-280.8 "/>
<text text-anchor="middle" x="912.7" y="-265.6" font-family="Times,serif" font-size="14.00">rrst_n</text>
<polyline fill="none" stroke="black" points="945.7,-257.8 945.7,-349.8 "/>
<text text-anchor="middle" x="999.2" y="-307.6" font-family="Times,serif" font-size="14.00">rptrhandler</text>
<text text-anchor="middle" x="999.2" y="-292.6" font-family="Times,serif" font-size="14.00">rptr_handler</text>
<polyline fill="none" stroke="black" points="1052.7,-257.8 1052.7,-349.8 "/>
<text text-anchor="middle" x="1083.7" y="-331.1" font-family="Times,serif" font-size="14.00">empty</text>
<polyline fill="none" stroke="black" points="1052.7,-319.8 1114.7,-319.8 "/>
<text text-anchor="middle" x="1083.7" y="-300.6" font-family="Times,serif" font-size="14.00">raddr</text>
<polyline fill="none" stroke="black" points="1052.7,-288.8 1114.7,-288.8 "/>
<text text-anchor="middle" x="1083.7" y="-269.6" font-family="Times,serif" font-size="14.00">rptr</text>
</g>
<!-- n6&#45;&gt;c19 -->
<g id="edge24" class="edge">
<title>n6:e&#45;&gt;c19:w</title>
<path fill="none" stroke="black" stroke-width="3" d="M843.7,-369.8C860.69,-369.8 859.97,-349.73 870.05,-341.89"/>
<polygon fill="black" stroke="black" stroke-width="3" points="871.24,-345.18 879.7,-338.8 869.11,-338.51 871.24,-345.18"/>
</g>
<!-- n7 -->
<g id="node7" class="node">
<title>n7</title>
<polygon fill="none" stroke="black" points="816.16,-308.35 816.16,-323.26 796.76,-333.8 769.31,-333.8 749.91,-323.26 749.91,-308.35 769.31,-297.8 796.76,-297.8 816.16,-308.35"/>
<text text-anchor="middle" x="783.03" y="-312.1" font-family="Times,serif" font-size="14.00">r_en</text>
</g>
<!-- n7&#45;&gt;c19 -->
<g id="edge25" class="edge">
<title>n7:e&#45;&gt;c19:w</title>
<path fill="none" stroke="black" d="M817.03,-315.8C841.19,-315.8 849.63,-315.8 869.61,-315.8"/>
<polygon fill="black" stroke="black" points="869.7,-319.3 879.7,-315.8 869.7,-312.3 869.7,-319.3"/>
</g>
<!-- n8 -->
<g id="node8" class="node">
<title>n8</title>
<polygon fill="none" stroke="black" points="1202.17,-225.8 1150.73,-207.8 1202.17,-189.8 1253.62,-207.8 1202.17,-225.8"/>
<text text-anchor="middle" x="1202.17" y="-204.1" font-family="Times,serif" font-size="14.00">raddr</text>
</g>
<!-- n8&#45;&gt;c18 -->
<g id="edge27" class="edge">
<title>n8:e&#45;&gt;c18:w</title>
<path fill="none" stroke="black" stroke-width="3" d="M1253.64,-207.8C1283.57,-207.8 1262.51,-155.74 1279.68,-142.72"/>
<polygon fill="black" stroke="black" stroke-width="3" points="1281.03,-145.97 1289.64,-139.8 1279.06,-139.26 1281.03,-145.97"/>
</g>
<!-- n9 -->
<g id="node9" class="node">
<title>n9</title>
<polygon fill="none" stroke="black" points="479.32,-322.35 479.32,-337.26 461.21,-347.8 435.61,-347.8 417.5,-337.26 417.5,-322.35 435.61,-311.8 461.21,-311.8 479.32,-322.35"/>
<text text-anchor="middle" x="448.41" y="-326.1" font-family="Times,serif" font-size="14.00">rclk</text>
</g>
<!-- n9&#45;&gt;c19 -->
<g id="edge28" class="edge">
<title>n9:e&#45;&gt;c19:w</title>
<path fill="none" stroke="black" d="M480.41,-329.8C572.19,-329.8 600.13,-346.19 686.37,-314.8 704.92,-308.05 703.59,-294.87 722.37,-288.8 773.68,-272.21 789.82,-286.56 843.7,-288.8 855.73,-289.3 860.93,-290.74 869.56,-291.43"/>
<polygon fill="black" stroke="black" points="869.58,-294.93 879.7,-291.8 869.83,-287.93 869.58,-294.93"/>
</g>
<!-- c25 -->
<g id="node20" class="node">
<title>c25</title>
<polygon fill="none" stroke="black" points="530.37,-236.3 530.37,-305.3 686.37,-305.3 686.37,-236.3 530.37,-236.3"/>
<text text-anchor="middle" x="556.87" y="-290.1" font-family="Times,serif" font-size="14.00">clk</text>
<polyline fill="none" stroke="black" points="530.37,-282.3 583.37,-282.3 "/>
<text text-anchor="middle" x="556.87" y="-267.1" font-family="Times,serif" font-size="14.00">in</text>
<polyline fill="none" stroke="black" points="530.37,-259.3 583.37,-259.3 "/>
<text text-anchor="middle" x="556.87" y="-244.1" font-family="Times,serif" font-size="14.00">rst_n</text>
<polyline fill="none" stroke="black" points="583.37,-236.3 583.37,-305.3 "/>
<text text-anchor="middle" x="612.87" y="-274.6" font-family="Times,serif" font-size="14.00">syncB</text>
<text text-anchor="middle" x="612.87" y="-259.6" font-family="Times,serif" font-size="14.00">cdc</text>
<polyline fill="none" stroke="black" points="642.37,-236.3 642.37,-305.3 "/>
<text text-anchor="middle" x="664.37" y="-267.1" font-family="Times,serif" font-size="14.00">qb2</text>
</g>
<!-- n9&#45;&gt;c25 -->
<g id="edge29" class="edge">
<title>n9:e&#45;&gt;c25:w</title>
<path fill="none" stroke="black" d="M480.41,-329.8C503.93,-329.8 503.71,-303.21 520.55,-295.74"/>
<polygon fill="black" stroke="black" points="521.24,-299.17 530.37,-293.8 519.88,-292.3 521.24,-299.17"/>
</g>
<!-- n10 -->
<g id="node10" class="node">
<title>n10</title>
<polygon fill="none" stroke="black" points="1202.17,-333.8 1160.95,-315.8 1202.17,-297.8 1243.4,-315.8 1202.17,-333.8"/>
<text text-anchor="middle" x="1202.17" y="-312.1" font-family="Times,serif" font-size="14.00">rptr</text>
</g>
<!-- c24 -->
<g id="node19" class="node">
<title>c24</title>
<polygon fill="none" stroke="black" points="1339.14,-444.3 1339.14,-513.3 1495.14,-513.3 1495.14,-444.3 1339.14,-444.3"/>
<text text-anchor="middle" x="1365.64" y="-498.1" font-family="Times,serif" font-size="14.00">clk</text>
<polyline fill="none" stroke="black" points="1339.14,-490.3 1392.14,-490.3 "/>
<text text-anchor="middle" x="1365.64" y="-475.1" font-family="Times,serif" font-size="14.00">in</text>
<polyline fill="none" stroke="black" points="1339.14,-467.3 1392.14,-467.3 "/>
<text text-anchor="middle" x="1365.64" y="-452.1" font-family="Times,serif" font-size="14.00">rst_n</text>
<polyline fill="none" stroke="black" points="1392.14,-444.3 1392.14,-513.3 "/>
<text text-anchor="middle" x="1421.64" y="-482.6" font-family="Times,serif" font-size="14.00">syncA</text>
<text text-anchor="middle" x="1421.64" y="-467.6" font-family="Times,serif" font-size="14.00">cdc</text>
<polyline fill="none" stroke="black" points="1451.14,-444.3 1451.14,-513.3 "/>
<text text-anchor="middle" x="1473.14" y="-475.1" font-family="Times,serif" font-size="14.00">qb2</text>
</g>
<!-- n10&#45;&gt;c24 -->
<g id="edge3" class="edge">
<title>n10:e&#45;&gt;c24:w</title>
<path fill="none" stroke="black" stroke-width="3" d="M1244.17,-315.8C1324.04,-315.8 1260.79,-464.49 1327.8,-477.84"/>
<polygon fill="black" stroke="black" stroke-width="3" points="1327.86,-481.37 1338.14,-478.8 1328.51,-474.39 1327.86,-481.37"/>
</g>
<!-- n11 -->
<g id="node11" class="node">
<title>n11</title>
<polygon fill="none" stroke="black" points="489.92,-206.35 489.92,-221.26 465.61,-231.8 431.22,-231.8 406.9,-221.26 406.9,-206.35 431.22,-195.8 465.61,-195.8 489.92,-206.35"/>
<text text-anchor="middle" x="448.41" y="-210.1" font-family="Times,serif" font-size="14.00">rrst_n</text>
</g>
<!-- n11&#45;&gt;c19 -->
<g id="edge4" class="edge">
<title>n11:e&#45;&gt;c19:w</title>
<path fill="none" stroke="black" d="M491.41,-213.8C578.25,-213.8 600.38,-214.66 686.37,-226.8 769.86,-238.59 790.15,-266.39 869.22,-268.65"/>
<polygon fill="black" stroke="black" points="869.65,-272.16 879.7,-268.8 869.75,-265.16 869.65,-272.16"/>
</g>
<!-- n11&#45;&gt;c25 -->
<g id="edge5" class="edge">
<title>n11:e&#45;&gt;c25:w</title>
<path fill="none" stroke="black" d="M491.41,-213.8C510.26,-213.8 508.94,-236.68 520.54,-244.9"/>
<polygon fill="black" stroke="black" points="519.79,-248.33 530.37,-247.8 521.77,-241.62 519.79,-248.33"/>
</g>
<!-- n12 -->
<g id="node12" class="node">
<title>n12</title>
<polygon fill="none" stroke="black" points="82.8,-86.35 82.8,-101.26 61.08,-111.8 30.37,-111.8 8.66,-101.26 8.66,-86.35 30.37,-75.8 61.08,-75.8 82.8,-86.35"/>
<text text-anchor="middle" x="45.73" y="-90.1" font-family="Times,serif" font-size="14.00">w_en</text>
</g>
<!-- n12&#45;&gt;c18 -->
<g id="edge6" class="edge">
<title>n12:e&#45;&gt;c18:w</title>
<path fill="none" stroke="black" d="M83.73,-93.8C109.47,-93.8 103.69,-65.71 127.45,-55.8 259.07,-0.91 304.81,-31.8 447.41,-31.8 447.41,-31.8 447.41,-31.8 998.2,-31.8 1112.23,-31.8 1142.68,-29.55 1253.64,-55.8 1266.43,-58.83 1270.68,-65.43 1279.67,-68.35"/>
<polygon fill="black" stroke="black" points="1279.24,-71.83 1289.64,-69.8 1280.25,-64.9 1279.24,-71.83"/>
</g>
<!-- n12&#45;&gt;c26 -->
<g id="edge7" class="edge">
<title>n12:e&#45;&gt;c26:w</title>
<path fill="none" stroke="black" d="M83.73,-93.8C145.49,-93.8 71.57,-218.76 117.44,-233.41"/>
<polygon fill="black" stroke="black" points="117.07,-236.89 127.45,-234.8 118.03,-229.95 117.07,-236.89"/>
</g>
<!-- n13 -->
<g id="node13" class="node">
<title>n13</title>
<polygon fill="none" stroke="black" points="997.2,-133.8 940.22,-115.8 997.2,-97.8 1054.17,-115.8 997.2,-133.8"/>
<text text-anchor="middle" x="997.2" y="-112.1" font-family="Times,serif" font-size="14.00">waddr</text>
</g>
<!-- n13&#45;&gt;c18 -->
<g id="edge9" class="edge">
<title>n13:e&#45;&gt;c18:w</title>
<path fill="none" stroke="black" stroke-width="3" d="M1055.2,-115.8C1155.94,-115.8 1183.63,-115.8 1279.52,-115.8"/>
<polygon fill="black" stroke="black" stroke-width="3" points="1279.64,-119.3 1289.64,-115.8 1279.64,-112.3 1279.64,-119.3"/>
</g>
<!-- n14 -->
<g id="node14" class="node">
<title>n14</title>
<polygon fill="none" stroke="black" points="80.17,-203.35 80.17,-218.26 59.99,-228.8 31.46,-228.8 11.28,-218.26 11.28,-203.35 31.46,-192.8 59.99,-192.8 80.17,-203.35"/>
<text text-anchor="middle" x="45.73" y="-207.1" font-family="Times,serif" font-size="14.00">wclk</text>
</g>
<!-- n14&#45;&gt;c18 -->
<g id="edge10" class="edge">
<title>n14:e&#45;&gt;c18:w</title>
<path fill="none" stroke="black" d="M81.73,-210.8C109.62,-210.8 103.33,-181.81 127.45,-167.8 256.08,-93.14 298.69,-69.8 447.41,-69.8 447.41,-69.8 447.41,-69.8 998.2,-69.8 1124.71,-69.8 1157.98,-91.6 1279.57,-92.75"/>
<polygon fill="black" stroke="black" points="1279.63,-96.25 1289.64,-92.8 1279.66,-89.25 1279.63,-96.25"/>
</g>
<!-- n14&#45;&gt;c24 -->
<g id="edge11" class="edge">
<title>n14:e&#45;&gt;c24:w</title>
<path fill="none" stroke="black" d="M81.73,-210.8C118.15,-210.8 100.55,-254.25 127.45,-278.8 247.19,-388.05 285.33,-453.8 447.41,-453.8 447.41,-453.8 447.41,-453.8 609.37,-453.8 930.48,-453.8 1011.8,-500.78 1327.77,-501.78"/>
<polygon fill="black" stroke="black" points="1328.14,-505.29 1338.14,-501.8 1328.15,-498.29 1328.14,-505.29"/>
</g>
<!-- n14&#45;&gt;c26 -->
<g id="edge12" class="edge">
<title>n14:e&#45;&gt;c26:w</title>
<path fill="none" stroke="black" d="M81.73,-210.8C98.24,-210.8 104.69,-210.8 117.43,-210.8"/>
<polygon fill="black" stroke="black" points="117.45,-214.3 127.45,-210.8 117.45,-207.3 117.45,-214.3"/>
</g>
<!-- n15 -->
<g id="node15" class="node">
<title>n15</title>
<polygon fill="none" stroke="black" points="448.41,-287.8 402.5,-269.8 448.41,-251.8 494.33,-269.8 448.41,-287.8"/>
<text text-anchor="middle" x="448.41" y="-266.1" font-family="Times,serif" font-size="14.00">wptr</text>
</g>
<!-- n15&#45;&gt;c25 -->
<g id="edge14" class="edge">
<title>n15:e&#45;&gt;c25:w</title>
<path fill="none" stroke="black" stroke-width="3" d="M494.37,-269.8C506.37,-269.8 511.62,-270.36 520.24,-270.64"/>
<polygon fill="black" stroke="black" stroke-width="3" points="520.32,-274.15 530.37,-270.8 520.42,-267.15 520.32,-274.15"/>
</g>
<!-- n16 -->
<g id="node16" class="node">
<title>n16</title>
<polygon fill="none" stroke="black" points="91.68,-370.35 91.68,-385.26 64.76,-395.8 26.69,-395.8 -0.23,-385.26 -0.23,-370.35 26.69,-359.8 64.76,-359.8 91.68,-370.35"/>
<text text-anchor="middle" x="45.73" y="-374.1" font-family="Times,serif" font-size="14.00">wrst_n</text>
</g>
<!-- n16&#45;&gt;c24 -->
<g id="edge15" class="edge">
<title>n16:e&#45;&gt;c24:w</title>
<path fill="none" stroke="black" d="M91.45,-377.8C134.54,-377.8 92.71,-442.33 127.45,-467.8 242.46,-552.11 304.81,-491.8 447.41,-491.8 447.41,-491.8 447.41,-491.8 609.37,-491.8 930.18,-491.8 1012.1,-456.57 1327.78,-455.81"/>
<polygon fill="black" stroke="black" points="1328.15,-459.31 1338.14,-455.8 1328.14,-452.31 1328.15,-459.31"/>
</g>
<!-- n16&#45;&gt;c26 -->
<g id="edge16" class="edge">
<title>n16:e&#45;&gt;c26:w</title>
<path fill="none" stroke="black" d="M91.45,-377.8C173.54,-377.8 53.27,-204.49 117.17,-188.92"/>
<polygon fill="black" stroke="black" points="117.89,-192.36 127.45,-187.8 117.13,-185.4 117.89,-192.36"/>
</g>
<!-- c18&#45;&gt;n2 -->
<g id="edge17" class="edge">
<title>c18:e&#45;&gt;n2:w</title>
<path fill="none" stroke="black" stroke-width="3" d="M1544.64,-127.8C1556.67,-127.8 1561.93,-127.8 1570.57,-127.8"/>
<polygon fill="black" stroke="black" stroke-width="3" points="1570.71,-131.3 1580.71,-127.8 1570.71,-124.3 1570.71,-131.3"/>
</g>
<!-- c19&#45;&gt;n3 -->
<g id="edge18" class="edge">
<title>c19:e&#45;&gt;n3:w</title>
<path fill="none" stroke="black" d="M1114.7,-334.8C1135.15,-334.8 1133.99,-359.26 1147.36,-367.28"/>
<polygon fill="black" stroke="black" points="1146.62,-370.71 1157.17,-369.8 1148.35,-363.93 1146.62,-370.71"/>
</g>
<!-- c19&#45;&gt;n8 -->
<g id="edge26" class="edge">
<title>c19:e&#45;&gt;n8:w</title>
<path fill="none" stroke="black" stroke-width="3" d="M1114.7,-304.8C1156.55,-304.8 1113.95,-224.45 1140.63,-210.01"/>
<polygon fill="black" stroke="black" stroke-width="3" points="1141.68,-213.36 1150.7,-207.8 1140.18,-206.52 1141.68,-213.36"/>
</g>
<!-- c19&#45;&gt;n10 -->
<g id="edge2" class="edge">
<title>c19:e&#45;&gt;n10:w</title>
<path fill="none" stroke="black" stroke-width="3" d="M1114.7,-272.8C1138.38,-272.8 1134.53,-303.98 1150.05,-313.24"/>
<polygon fill="black" stroke="black" stroke-width="3" points="1149.62,-316.74 1160.17,-315.8 1151.33,-309.96 1149.62,-316.74"/>
</g>
<!-- c24&#45;&gt;n5 -->
<g id="edge21" class="edge">
<title>c24:e&#45;&gt;n5:w</title>
<path fill="none" stroke="black" stroke-width="3" d="M1496.14,-478.8C1532.69,-478.8 1539.44,-452.29 1570.64,-447.53"/>
<polygon fill="black" stroke="black" stroke-width="3" points="1570.92,-451.02 1580.64,-446.8 1570.42,-444.04 1570.92,-451.02"/>
</g>
<!-- c25&#45;&gt;n6 -->
<g id="edge23" class="edge">
<title>c25:e&#45;&gt;n6:w</title>
<path fill="none" stroke="black" stroke-width="3" d="M686.37,-270.8C729.17,-270.8 684.69,-353.52 712.48,-367.73"/>
<polygon fill="black" stroke="black" stroke-width="3" points="711.87,-371.18 722.37,-369.8 713.3,-364.33 711.87,-371.18"/>
</g>
<!-- c26&#45;&gt;n4 -->
<g id="edge19" class="edge">
<title>c26:e&#45;&gt;n4:w</title>
<path fill="none" stroke="black" d="M366.45,-253.8C400.26,-253.8 374.73,-206.14 402.45,-186.8 464.66,-143.41 496.98,-160.1 568.95,-161.69"/>
<polygon fill="black" stroke="black" points="569.33,-165.19 579.37,-161.8 569.41,-158.19 569.33,-165.19"/>
</g>
<!-- c26&#45;&gt;n13 -->
<g id="edge8" class="edge">
<title>c26:e&#45;&gt;n13:w</title>
<path fill="none" stroke="black" stroke-width="3" d="M366.45,-223.8C401.83,-223.8 373.67,-173.38 402.45,-152.8 458.54,-112.71 607.04,-115.73 929.13,-115.8"/>
<polygon fill="black" stroke="black" stroke-width="3" points="929.2,-119.3 939.2,-115.8 929.2,-112.3 929.2,-119.3"/>
</g>
<!-- c26&#45;&gt;n15 -->
<g id="edge13" class="edge">
<title>c26:e&#45;&gt;n15:w</title>
<path fill="none" stroke="black" stroke-width="3" d="M366.45,-191.8C400.46,-191.8 372.16,-253.67 392.54,-267.21"/>
<polygon fill="black" stroke="black" stroke-width="3" points="391.89,-270.65 402.45,-269.8 393.67,-263.88 391.89,-270.65"/>
</g>
</g>
</svg>
