<?xml version="1.0" encoding="UTF-8" standalone="no"?>
<!DOCTYPE svg PUBLIC "-//W3C//DTD SVG 1.1//EN"
 "http://www.w3.org/Graphics/SVG/1.1/DTD/svg11.dtd">
<!-- Generated by graphviz version 2.43.0 (0)
 -->
<!-- Title: fifo_memory Pages: 1 -->
<svg width="598pt" height="445pt"
 viewBox="0.00 0.00 597.81 445.00" xmlns="http://www.w3.org/2000/svg" xmlns:xlink="http://www.w3.org/1999/xlink">
<g id="graph0" class="graph" transform="scale(1 1) rotate(0) translate(4 441)">
<title>fifo_memory</title>
<polygon fill="white" stroke="transparent" points="-4,4 -4,-441 593.81,-441 593.81,4 -4,4"/>
<text text-anchor="middle" x="294.9" y="-7.8" font-family="Times,serif" font-size="14.00">fifo_memory</text>
<!-- n2 -->
<g id="node1" class="node">
<title>n2</title>
<polygon fill="none" stroke="black" points="121.21,-357.54 121.21,-372.46 93.28,-383 53.78,-383 25.86,-372.46 25.86,-357.54 53.78,-347 93.28,-347 121.21,-357.54"/>
<text text-anchor="middle" x="73.53" y="-361.3" font-family="Times,serif" font-size="14.00">data_in</text>
</g>
<!-- c17 -->
<g id="node11" class="node">
<title>c17</title>
<polygon fill="none" stroke="black" points="183.07,-253.5 183.07,-368.5 444.07,-368.5 444.07,-253.5 183.07,-253.5"/>
<text text-anchor="middle" x="217.07" y="-353.3" font-family="Times,serif" font-size="14.00">clk</text>
<polyline fill="none" stroke="black" points="183.07,-345.5 251.07,-345.5 "/>
<text text-anchor="middle" x="217.07" y="-330.3" font-family="Times,serif" font-size="14.00">data_in</text>
<polyline fill="none" stroke="black" points="183.07,-322.5 251.07,-322.5 "/>
<text text-anchor="middle" x="217.07" y="-307.3" font-family="Times,serif" font-size="14.00">raddr</text>
<polyline fill="none" stroke="black" points="183.07,-299.5 251.07,-299.5 "/>
<text text-anchor="middle" x="217.07" y="-284.3" font-family="Times,serif" font-size="14.00">waddr</text>
<polyline fill="none" stroke="black" points="183.07,-276.5 251.07,-276.5 "/>
<text text-anchor="middle" x="217.07" y="-261.3" font-family="Times,serif" font-size="14.00">wen</text>
<polyline fill="none" stroke="black" points="251.07,-253.5 251.07,-368.5 "/>
<text text-anchor="middle" x="308.57" y="-314.8" font-family="Times,serif" font-size="14.00">fifo</text>
<text text-anchor="middle" x="308.57" y="-299.8" font-family="Times,serif" font-size="14.00">register_bank</text>
<polyline fill="none" stroke="black" points="366.07,-253.5 366.07,-368.5 "/>
<text text-anchor="middle" x="405.07" y="-307.3" font-family="Times,serif" font-size="14.00">data_out</text>
</g>
<!-- n2&#45;&gt;c17 -->
<g id="edge3" class="edge">
<title>n2:e&#45;&gt;c17:w</title>
<path fill="none" stroke="black" stroke-width="3" d="M122.53,-365C148.98,-365 152.35,-341.27 173.03,-335.33"/>
<polygon fill="black" stroke="black" stroke-width="3" points="173.61,-338.78 183.07,-334 172.69,-331.85 173.61,-338.78"/>
</g>
<!-- n3 -->
<g id="node2" class="node">
<title>n3</title>
<polygon fill="none" stroke="black" points="589.68,-303.54 589.68,-318.46 557.61,-329 512.26,-329 480.19,-318.46 480.19,-303.54 512.26,-293 557.61,-293 589.68,-303.54"/>
<text text-anchor="middle" x="534.94" y="-307.3" font-family="Times,serif" font-size="14.00">data_out</text>
</g>
<!-- n4 -->
<g id="node3" class="node">
<title>n4</title>
<polygon fill="none" stroke="black" points="101.81,-141.54 101.81,-156.46 85.25,-167 61.82,-167 45.25,-156.46 45.25,-141.54 61.82,-131 85.25,-131 101.81,-141.54"/>
<text text-anchor="middle" x="73.53" y="-145.3" font-family="Times,serif" font-size="14.00">full</text>
</g>
<!-- c15 -->
<g id="node10" class="node">
<title>c15</title>
<polygon fill="none" stroke="black" points="241.57,-114.5 241.57,-183.5 385.57,-183.5 385.57,-114.5 241.57,-114.5"/>
<text text-anchor="middle" x="260.57" y="-168.3" font-family="Times,serif" font-size="14.00">A1</text>
<polyline fill="none" stroke="black" points="241.57,-160.5 279.57,-160.5 "/>
<text text-anchor="middle" x="260.57" y="-145.3" font-family="Times,serif" font-size="14.00">A2</text>
<polyline fill="none" stroke="black" points="241.57,-137.5 279.57,-137.5 "/>
<text text-anchor="middle" x="260.57" y="-122.3" font-family="Times,serif" font-size="14.00">ZN</text>
<polyline fill="none" stroke="black" points="279.57,-114.5 279.57,-183.5 "/>
<text text-anchor="middle" x="322.07" y="-152.8" font-family="Times,serif" font-size="14.00">$1493</text>
<text text-anchor="middle" x="322.07" y="-137.8" font-family="Times,serif" font-size="14.00">NOR2_X1</text>
<polyline fill="none" stroke="black" points="364.57,-114.5 364.57,-183.5 "/>
<text text-anchor="middle" x="375.07" y="-145.3" font-family="Times,serif" font-size="14.00"> </text>
</g>
<!-- n4&#45;&gt;c15 -->
<g id="edge5" class="edge">
<title>n4:e&#45;&gt;c15:w</title>
<path fill="none" stroke="black" d="M102.53,-149C160.29,-149 177.26,-149 230.24,-149"/>
<polygon fill="black" stroke="black" points="230.57,-152.5 240.57,-149 230.57,-145.5 230.57,-152.5"/>
</g>
<!-- n5 -->
<g id="node4" class="node">
<title>n5</title>
<polygon fill="none" stroke="black" points="112.82,-303.54 112.82,-318.46 89.81,-329 57.26,-329 34.24,-318.46 34.24,-303.54 57.26,-293 89.81,-293 112.82,-303.54"/>
<text text-anchor="middle" x="73.53" y="-307.3" font-family="Times,serif" font-size="14.00">raddr</text>
</g>
<!-- n5&#45;&gt;c17 -->
<g id="edge6" class="edge">
<title>n5:e&#45;&gt;c17:w</title>
<path fill="none" stroke="black" stroke-width="3" d="M113.53,-311C140.69,-311 149.95,-311 172.78,-311"/>
<polygon fill="black" stroke="black" stroke-width="3" points="173.07,-314.5 183.07,-311 173.07,-307.5 173.07,-314.5"/>
</g>
<!-- n6 -->
<g id="node5" class="node">
<title>n6</title>
<polygon fill="none" stroke="black" points="117.27,-249.54 117.27,-264.46 91.65,-275 55.42,-275 29.8,-264.46 29.8,-249.54 55.42,-239 91.65,-239 117.27,-249.54"/>
<text text-anchor="middle" x="73.53" y="-253.3" font-family="Times,serif" font-size="14.00">waddr</text>
</g>
<!-- n6&#45;&gt;c17 -->
<g id="edge7" class="edge">
<title>n6:e&#45;&gt;c17:w</title>
<path fill="none" stroke="black" stroke-width="3" d="M118.53,-257C146.62,-257 150.61,-281.16 173.05,-286.82"/>
<polygon fill="black" stroke="black" stroke-width="3" points="172.72,-290.31 183.07,-288 173.54,-283.36 172.72,-290.31"/>
</g>
<!-- n7 -->
<g id="node6" class="node">
<title>n7</title>
<polygon fill="none" stroke="black" points="107.97,-411.54 107.97,-426.46 87.8,-437 59.27,-437 39.09,-426.46 39.09,-411.54 59.27,-401 87.8,-401 107.97,-411.54"/>
<text text-anchor="middle" x="73.53" y="-415.3" font-family="Times,serif" font-size="14.00">wclk</text>
</g>
<!-- n7&#45;&gt;c17 -->
<g id="edge8" class="edge">
<title>n7:e&#45;&gt;c17:w</title>
<path fill="none" stroke="black" d="M109.53,-419C130.08,-419 131.31,-405.2 147.07,-392 160.96,-380.35 161.31,-364.53 172.92,-359"/>
<polygon fill="black" stroke="black" points="173.93,-362.37 183.07,-357 172.58,-355.5 173.93,-362.37"/>
</g>
<!-- n8 -->
<g id="node7" class="node">
<title>n8</title>
<polygon fill="none" stroke="black" points="124.74,-33.54 124.74,-48.46 94.74,-59 52.32,-59 22.32,-48.46 22.32,-33.54 52.32,-23 94.74,-23 124.74,-33.54"/>
<text text-anchor="middle" x="73.53" y="-37.3" font-family="Times,serif" font-size="14.00">wclk_en</text>
</g>
<!-- c12 -->
<g id="node9" class="node">
<title>c12</title>
<polygon fill="none" stroke="black" points="249.57,-27 249.57,-73 377.57,-73 377.57,-27 249.57,-27"/>
<text text-anchor="middle" x="268.57" y="-57.8" font-family="Times,serif" font-size="14.00">A</text>
<polyline fill="none" stroke="black" points="249.57,-50 287.57,-50 "/>
<text text-anchor="middle" x="268.57" y="-34.8" font-family="Times,serif" font-size="14.00">ZN</text>
<polyline fill="none" stroke="black" points="287.57,-27 287.57,-73 "/>
<text text-anchor="middle" x="322.07" y="-53.8" font-family="Times,serif" font-size="14.00">$1492</text>
<text text-anchor="middle" x="322.07" y="-38.8" font-family="Times,serif" font-size="14.00">INV_X1</text>
<polyline fill="none" stroke="black" points="356.57,-27 356.57,-73 "/>
<text text-anchor="middle" x="367.07" y="-46.3" font-family="Times,serif" font-size="14.00"> </text>
</g>
<!-- n8&#45;&gt;c12 -->
<g id="edge9" class="edge">
<title>n8:e&#45;&gt;c12:w</title>
<path fill="none" stroke="black" d="M125.53,-41C177.43,-41 191.35,-59.38 238.36,-61.75"/>
<polygon fill="black" stroke="black" points="238.48,-65.25 248.57,-62 238.65,-58.26 238.48,-65.25"/>
</g>
<!-- n9 -->
<g id="node8" class="node">
<title>n9</title>
<polygon fill="none" stroke="black" points="73.53,-221 31.47,-203 73.53,-185 115.6,-203 73.53,-221"/>
<text text-anchor="middle" x="73.53" y="-199.3" font-family="Times,serif" font-size="14.00">wen</text>
</g>
<!-- n9&#45;&gt;c15 -->
<g id="edge10" class="edge">
<title>n9:e&#45;&gt;c15:w</title>
<path fill="none" stroke="black" d="M116.53,-203C177.87,-203 176.1,-134.19 230.53,-126.67"/>
<polygon fill="black" stroke="black" points="230.82,-130.15 240.57,-126 230.36,-123.17 230.82,-130.15"/>
</g>
<!-- n9&#45;&gt;c17 -->
<g id="edge11" class="edge">
<title>n9:e&#45;&gt;c17:w</title>
<path fill="none" stroke="black" d="M116.53,-203C153.16,-203 144.85,-253.92 173.05,-263.47"/>
<polygon fill="black" stroke="black" points="172.65,-266.95 183.07,-265 173.71,-260.03 172.65,-266.95"/>
</g>
<!-- c17&#45;&gt;n3 -->
<g id="edge4" class="edge">
<title>c17:e&#45;&gt;n3:w</title>
<path fill="none" stroke="black" stroke-width="3" d="M444.07,-311C456.07,-311 461.32,-311 469.94,-311"/>
<polygon fill="black" stroke="black" stroke-width="3" points="470.07,-314.5 480.07,-311 470.07,-307.5 470.07,-314.5"/>
</g>
<!-- n1 -->
<g id="node12" class="node">
<title>n1</title>
<polygon fill="none" stroke="black" points="73.53,-113 -0.03,-95 73.53,-77 147.1,-95 73.53,-113"/>
<text text-anchor="middle" x="73.53" y="-91.3" font-family="Times,serif" font-size="14.00">$new_n4</text>
</g>
<!-- n1&#45;&gt;c12 -->
<g id="edge1" class="edge">
<title>n1:e&#45;&gt;c12:w</title>
<path fill="none" stroke="black" d="M147.07,-95C195.17,-95 196.84,-45.73 238.41,-38.81"/>
<polygon fill="black" stroke="black" points="238.87,-42.28 248.57,-38 238.32,-35.3 238.87,-42.28"/>
</g>
<!-- n1&#45;&gt;c15 -->
<g id="edge2" class="edge">
<title>n1:e&#45;&gt;c15:w</title>
<path fill="none" stroke="black" d="M147.07,-95C197.22,-95 188.35,-161.83 230.43,-170.97"/>
<polygon fill="black" stroke="black" points="230.26,-174.47 240.57,-172 230.97,-167.51 230.26,-174.47"/>
</g>
</g>
</svg>
